<?xml version="1.0" encoding="UTF-8" standalone="no"?>
<svg width="26px" height="30px" viewBox="0 0 26 30" version="1.1" xmlns="http://www.w3.org/2000/svg" xmlns:xlink="http://www.w3.org/1999/xlink">
    <!-- Generator: Sketch 40 (33762) - http://www.bohemiancoding.com/sketch -->
    <title>Group 3</title>
    <desc>Created with Sketch.</desc>
    <defs>
        <ellipse id="path-1" cx="13" cy="12" rx="8.66666667" ry="8.66666667"></ellipse>
        <mask id="mask-2" maskContentUnits="userSpaceOnUse" maskUnits="objectBoundingBox" x="0" y="0" width="17.3333333" height="17.3333333" fill="white">
            <use xlink:href="#path-1"></use>
        </mask>
    </defs>
    <g id="Page-1" stroke="none" stroke-width="1" fill="none" fill-rule="evenodd">
        <g id="Map-+-Listings" transform="translate(-50.000000, -203.000000)">
            <g id="Group-3" transform="translate(50.000000, 203.000000)">
                <path d="M13,0.0833333333 C6.18697685,0.0833333333 0.662037037,5.50586806 0.662037037,12.193044 C0.662037037,18.9850926 6.05989583,23.6278681 13,29.6944444 C19.9401042,23.6278681 25.337963,18.9850926 25.337963,12.193044 C25.337963,5.50586806 19.8130231,0.0833333333 13,0.0833333333 L13,0.0833333333 Z M4.98032407,12.4212963 C4.98032407,7.99243027 8.57013151,4.40162037 13,4.40162037 C17.4298685,4.40162037 21.0196759,7.99243027 21.0196759,12.4212963 C21.0196759,16.8501623 17.4298685,20.4409722 13,20.4409722 C8.57013151,20.4409722 4.98032407,16.8501623 4.98032407,12.4212963 Z" id="Shape" fill="#F58120"></path>
                <use id="Oval-4" stroke="#F58120" mask="url(#mask-2)" stroke-width="2" fill="#FFFFFF" xlink:href="#path-1"></use>
            </g>
        </g>
    </g>
</svg>